<svg xmlns="http://www.w3.org/2000/svg" width="220" height="64" viewBox="0 0 220 64" fill="none" role="img" aria-label="EasyOrder">
  <rect width="220" height="64" rx="12" fill="#ffffff"/>
  <path d="M30 22.5c0-1.4 1.1-2.5 2.5-2.5h23c1.4 0 2.5 1.1 2.5 2.5v6.4c0 1.4-1.1 2.5-2.5 2.5h-23c-1.4 0-2.5-1.1-2.5-2.5v-6.4Z" fill="#F97316"/>
  <path d="M32 33.5h24l-2.6 11.2c-.3 1.3-1.4 2.3-2.8 2.3H37.4c-1.3 0-2.5-1-2.8-2.3L32 33.5Z" fill="#FB923C"/>
  <path d="M39 26h10" stroke="#fff" stroke-width="2.5" stroke-linecap="round"/>
  <path d="M37.5 40.5h13" stroke="#fff" stroke-width="2.5" stroke-linecap="round" opacity="0.9"/>
  <text x="82" y="41" font-family="Arial, Helvetica, sans-serif" font-size="26" font-weight="800" fill="#0F172A">EasyOrder</text>
</svg>
