<svg xmlns="http://www.w3.org/2000/svg" width="220" height="64" viewBox="0 0 220 64" fill="none" role="img" aria-label="Meta">
  <rect width="220" height="64" rx="12" fill="#ffffff"/>
  <path d="M33.6 44.2c-6.7 0-12.1-5.6-12.1-13.3 0-10.7 7-18 15.8-18 5.6 0 9.3 3.3 12.4 9.1 3.1-5.8 6.8-9.1 12.4-9.1 8.8 0 15.8 7.3 15.8 18 0 7.7-5.4 13.3-12.1 13.3-6.2 0-10.3-4.9-13.3-10.9-3 6-7.1 10.9-13.3 10.9Z" fill="#0866FF"/>
  <path d="M37.3 19.6c-5.7 0-10.7 5.6-10.7 13.3 0 5.3 3.3 9.2 7.3 9.2 5.4 0 9.6-6.7 12-12.4-2.2-5.3-4.9-10.1-8.6-10.1Z" fill="#0866FF"/>
  <path d="M62.7 19.6c-3.7 0-6.4 4.8-8.6 10.1 2.4 5.7 6.6 12.4 12 12.4 4 0 7.3-3.9 7.3-9.2 0-7.7-5-13.3-10.7-13.3Z" fill="#0866FF"/>
  <text x="98" y="41" font-family="Arial, Helvetica, sans-serif" font-size="28" font-weight="700" fill="#0F172A">Meta</text>
</svg>
