<svg xmlns="http://www.w3.org/2000/svg" width="220" height="64" viewBox="0 0 220 64" fill="none" role="img" aria-label="Shopify">
  <rect width="220" height="64" rx="12" fill="#ffffff"/>
  <path d="M46 16c-8.8 0-16 7.2-16 16.1 0 8.9 7.2 15.9 16 15.9s16-7 16-15.9C62 23.2 54.8 16 46 16Z" fill="#95BF47"/>
  <path d="M43.3 23.3c2.6-2.7 6.6-2.2 8.9 1.3 1.2 1.9 1.8 4.3 1.8 7 0 6-3.3 11.4-8.4 13.1-4.9 1.6-9-1.9-9-8.1 0-4.7 1.6-10 6.7-13.3Z" fill="#5E8E3E" opacity="0.55"/>
  <text x="82" y="41" font-family="Arial, Helvetica, sans-serif" font-size="28" font-weight="700" fill="#0F172A">Shopify</text>
</svg>
