<svg xmlns="http://www.w3.org/2000/svg" viewBox="0 0 128 128" role="img" aria-label="WhatsProf">
  <defs>
    <linearGradient id="g" x1="20" y1="108" x2="108" y2="20" gradientUnits="userSpaceOnUse">
      <stop offset="0" stop-color="#16A34A"/>
      <stop offset="1" stop-color="#22C55E"/>
    </linearGradient>
    <filter id="s" x="-20%" y="-20%" width="140%" height="140%">
      <feDropShadow dx="0" dy="4" stdDeviation="4" flood-color="#000" flood-opacity="0.25"/>
    </filter>
  </defs>

  <!-- Chat bubble ring -->
  <g filter="url(#s)">
    <path
      d="M64 18c-20.4 0-37 16.1-37 36 0 6.6 1.8 12.8 5.1 18.2L26 110l38.6-5.8c5.1 1.7 10.6 2.6 16.4 2.6 20.4 0 37-16.1 37-36s-16.6-36-37-36Z"
      fill="url(#g)"
    />
    <path
      d="M64 26c-16.2 0-29.5 12.7-29.5 28.3 0 5.2 1.5 10 4 14.2l-3.2 20.5 21-3.2c4 1.4 8.3 2.1 12.7 2.1 16.2 0 29.5-12.7 29.5-28.3S80.2 26 64 26Z"
      fill="#0B1220"
      opacity="0.12"
    />
  </g>

  <!-- Up arrow -->
  <path d="M92 38l20 20h-12v28H84V58H72l20-20Z" fill="#7CFF9B" opacity="0.9"/>

  <!-- Stylized W -->
  <path
    d="M36 48c0-3.3 2.7-6 6-6h2.2c2.2 0 4.2 1.2 5.2 3.1l10.6 20.2 9.3-17.8c1-1.9 3-3.1 5.2-3.1h2.3c3.3 0 6 2.7 6 6v33c0 3.3-2.7 6-6 6-3.3 0-6-2.7-6-6V70.8l-5.9 11.3c-1.1 2-3.1 3.2-5.4 3.2-2.2 0-4.3-1.2-5.4-3.2L48 70.8v14.7c0 3.3-2.7 6-6 6s-6-2.7-6-6V48Z"
    fill="#E8FFF0"
  />
</svg>
